<mxfile host="app.diagrams.net" modified="2024-03-23T21:29:29.726Z" agent="Mozilla/5.0 (Windows NT 10.0; Win64; x64) AppleWebKit/537.36 (KHTML, like Gecko) Chrome/122.0.0.0 Safari/537.36 Edg/122.0.0.0" etag="JtnmuD9kS4gJaHv1bQi1" version="24.1.0" type="device">
  <diagram id="C5RBs43oDa-KdzZeNtuy" name="Page-1">
    <mxGraphModel dx="911" dy="486" grid="1" gridSize="10" guides="1" tooltips="1" connect="1" arrows="1" fold="1" page="1" pageScale="1" pageWidth="827" pageHeight="1169" math="0" shadow="0">
      <root>
        <mxCell id="WIyWlLk6GJQsqaUBKTNV-0" />
        <mxCell id="WIyWlLk6GJQsqaUBKTNV-1" parent="WIyWlLk6GJQsqaUBKTNV-0" />
        <mxCell id="WIyWlLk6GJQsqaUBKTNV-2" value="" style="rounded=0;html=1;jettySize=auto;orthogonalLoop=1;fontSize=11;endArrow=block;endFill=0;endSize=8;strokeWidth=1;shadow=0;labelBackgroundColor=none;edgeStyle=orthogonalEdgeStyle;" parent="WIyWlLk6GJQsqaUBKTNV-1" source="BT0k9sbwrZlandMzFCT7-1" target="WIyWlLk6GJQsqaUBKTNV-6" edge="1">
          <mxGeometry relative="1" as="geometry">
            <mxPoint x="85" y="120" as="sourcePoint" />
          </mxGeometry>
        </mxCell>
        <mxCell id="BT0k9sbwrZlandMzFCT7-5" value="Yes" style="edgeLabel;html=1;align=center;verticalAlign=middle;resizable=0;points=[];" vertex="1" connectable="0" parent="WIyWlLk6GJQsqaUBKTNV-2">
          <mxGeometry x="0.3673" y="-3" relative="1" as="geometry">
            <mxPoint x="-22" as="offset" />
          </mxGeometry>
        </mxCell>
        <mxCell id="WIyWlLk6GJQsqaUBKTNV-4" value="Yes" style="rounded=0;html=1;jettySize=auto;orthogonalLoop=1;fontSize=11;endArrow=block;endFill=0;endSize=8;strokeWidth=1;shadow=0;labelBackgroundColor=none;edgeStyle=orthogonalEdgeStyle;entryX=0.5;entryY=0;entryDx=0;entryDy=0;" parent="WIyWlLk6GJQsqaUBKTNV-1" source="WIyWlLk6GJQsqaUBKTNV-6" target="BT0k9sbwrZlandMzFCT7-0" edge="1">
          <mxGeometry y="20" relative="1" as="geometry">
            <mxPoint as="offset" />
            <mxPoint x="85" y="290" as="targetPoint" />
            <Array as="points" />
          </mxGeometry>
        </mxCell>
        <mxCell id="WIyWlLk6GJQsqaUBKTNV-5" value="No" style="edgeStyle=orthogonalEdgeStyle;rounded=0;html=1;jettySize=auto;orthogonalLoop=1;fontSize=11;endArrow=block;endFill=0;endSize=8;strokeWidth=1;shadow=0;labelBackgroundColor=none;" parent="WIyWlLk6GJQsqaUBKTNV-1" source="WIyWlLk6GJQsqaUBKTNV-6" target="WIyWlLk6GJQsqaUBKTNV-7" edge="1">
          <mxGeometry y="10" relative="1" as="geometry">
            <mxPoint as="offset" />
          </mxGeometry>
        </mxCell>
        <mxCell id="WIyWlLk6GJQsqaUBKTNV-6" value="Can player attack?" style="rhombus;whiteSpace=wrap;html=1;shadow=0;fontFamily=Helvetica;fontSize=12;align=center;strokeWidth=1;spacing=6;spacingTop=-4;" parent="WIyWlLk6GJQsqaUBKTNV-1" vertex="1">
          <mxGeometry x="25" y="185" width="120" height="110" as="geometry" />
        </mxCell>
        <mxCell id="WIyWlLk6GJQsqaUBKTNV-7" value="Do nothing." style="rounded=1;whiteSpace=wrap;html=1;fontSize=12;glass=0;strokeWidth=1;shadow=0;" parent="WIyWlLk6GJQsqaUBKTNV-1" vertex="1">
          <mxGeometry x="180" y="220" width="120" height="40" as="geometry" />
        </mxCell>
        <mxCell id="BT0k9sbwrZlandMzFCT7-0" value="Tell Model to initiate Player attack." style="rounded=1;whiteSpace=wrap;html=1;" vertex="1" parent="WIyWlLk6GJQsqaUBKTNV-1">
          <mxGeometry x="25" y="330" width="120" height="60" as="geometry" />
        </mxCell>
        <mxCell id="BT0k9sbwrZlandMzFCT7-1" value="Is space pressed?" style="rhombus;whiteSpace=wrap;html=1;" vertex="1" parent="WIyWlLk6GJQsqaUBKTNV-1">
          <mxGeometry x="25" y="40" width="120" height="110" as="geometry" />
        </mxCell>
        <mxCell id="BT0k9sbwrZlandMzFCT7-3" value="No" style="edgeStyle=orthogonalEdgeStyle;rounded=0;html=1;jettySize=auto;orthogonalLoop=1;fontSize=11;endArrow=block;endFill=0;endSize=8;strokeWidth=1;shadow=0;labelBackgroundColor=none;exitX=1;exitY=0.5;exitDx=0;exitDy=0;" edge="1" parent="WIyWlLk6GJQsqaUBKTNV-1" target="BT0k9sbwrZlandMzFCT7-4" source="BT0k9sbwrZlandMzFCT7-1">
          <mxGeometry y="10" relative="1" as="geometry">
            <mxPoint as="offset" />
            <mxPoint x="145" y="95" as="sourcePoint" />
          </mxGeometry>
        </mxCell>
        <mxCell id="BT0k9sbwrZlandMzFCT7-4" value="Do nothing." style="rounded=1;whiteSpace=wrap;html=1;fontSize=12;glass=0;strokeWidth=1;shadow=0;" vertex="1" parent="WIyWlLk6GJQsqaUBKTNV-1">
          <mxGeometry x="180" y="75" width="120" height="40" as="geometry" />
        </mxCell>
        <mxCell id="BT0k9sbwrZlandMzFCT7-6" value="&lt;h1 style=&quot;margin-top: 0px;&quot;&gt;Controller&lt;/h1&gt;" style="text;html=1;whiteSpace=wrap;overflow=hidden;rounded=0;" vertex="1" parent="WIyWlLk6GJQsqaUBKTNV-1">
          <mxGeometry width="170" height="30" as="geometry" />
        </mxCell>
        <mxCell id="BT0k9sbwrZlandMzFCT7-7" value="&lt;h1 style=&quot;margin-top: 0px;&quot;&gt;Model&lt;/h1&gt;" style="text;html=1;whiteSpace=wrap;overflow=hidden;rounded=0;" vertex="1" parent="WIyWlLk6GJQsqaUBKTNV-1">
          <mxGeometry y="430" width="80" height="40" as="geometry" />
        </mxCell>
        <mxCell id="BT0k9sbwrZlandMzFCT7-8" value="...." style="rounded=1;whiteSpace=wrap;html=1;" vertex="1" parent="WIyWlLk6GJQsqaUBKTNV-1">
          <mxGeometry x="25" y="470" width="120" height="60" as="geometry" />
        </mxCell>
        <mxCell id="BT0k9sbwrZlandMzFCT7-9" value="Tell Player to initiate attack." style="rounded=1;whiteSpace=wrap;html=1;" vertex="1" parent="WIyWlLk6GJQsqaUBKTNV-1">
          <mxGeometry x="25" y="590" width="120" height="60" as="geometry" />
        </mxCell>
        <mxCell id="BT0k9sbwrZlandMzFCT7-10" value="" style="endArrow=block;html=1;rounded=0;exitX=0.5;exitY=1;exitDx=0;exitDy=0;entryX=0.5;entryY=0;entryDx=0;entryDy=0;endFill=0;endSize=8;" edge="1" parent="WIyWlLk6GJQsqaUBKTNV-1" source="BT0k9sbwrZlandMzFCT7-8" target="BT0k9sbwrZlandMzFCT7-9">
          <mxGeometry width="50" height="50" relative="1" as="geometry">
            <mxPoint x="55" y="640" as="sourcePoint" />
            <mxPoint x="105" y="590" as="targetPoint" />
          </mxGeometry>
        </mxCell>
        <mxCell id="BT0k9sbwrZlandMzFCT7-14" value="" style="endArrow=block;html=1;rounded=0;exitX=0.5;exitY=1;exitDx=0;exitDy=0;endFill=0;endSize=8;entryX=0.5;entryY=0;entryDx=0;entryDy=0;" edge="1" parent="WIyWlLk6GJQsqaUBKTNV-1" source="BT0k9sbwrZlandMzFCT7-0" target="BT0k9sbwrZlandMzFCT7-8">
          <mxGeometry width="50" height="50" relative="1" as="geometry">
            <mxPoint x="95" y="540" as="sourcePoint" />
            <mxPoint x="90" y="480" as="targetPoint" />
          </mxGeometry>
        </mxCell>
        <mxCell id="BT0k9sbwrZlandMzFCT7-15" value="&lt;h1 style=&quot;margin-top: 0px;&quot;&gt;Player&lt;/h1&gt;&lt;div&gt;&lt;br&gt;&lt;/div&gt;" style="text;html=1;whiteSpace=wrap;overflow=hidden;rounded=0;" vertex="1" parent="WIyWlLk6GJQsqaUBKTNV-1">
          <mxGeometry x="320" width="170" height="30" as="geometry" />
        </mxCell>
        <mxCell id="BT0k9sbwrZlandMzFCT7-16" value="Update attack state" style="rounded=1;whiteSpace=wrap;html=1;" vertex="1" parent="WIyWlLk6GJQsqaUBKTNV-1">
          <mxGeometry x="360" y="40" width="120" height="60" as="geometry" />
        </mxCell>
        <mxCell id="BT0k9sbwrZlandMzFCT7-26" style="edgeStyle=orthogonalEdgeStyle;rounded=0;orthogonalLoop=1;jettySize=auto;html=1;exitX=0.5;exitY=1;exitDx=0;exitDy=0;entryX=0.5;entryY=0;entryDx=0;entryDy=0;endSize=8;endArrow=block;endFill=0;" edge="1" parent="WIyWlLk6GJQsqaUBKTNV-1" source="BT0k9sbwrZlandMzFCT7-17" target="BT0k9sbwrZlandMzFCT7-22">
          <mxGeometry relative="1" as="geometry" />
        </mxCell>
        <mxCell id="BT0k9sbwrZlandMzFCT7-17" value="Tell Weapon to initiate attack" style="rounded=1;whiteSpace=wrap;html=1;" vertex="1" parent="WIyWlLk6GJQsqaUBKTNV-1">
          <mxGeometry x="360" y="210" width="120" height="60" as="geometry" />
        </mxCell>
        <mxCell id="BT0k9sbwrZlandMzFCT7-18" value="" style="endArrow=block;html=1;rounded=0;exitX=1;exitY=0.5;exitDx=0;exitDy=0;endFill=0;endSize=8;entryX=0;entryY=0.5;entryDx=0;entryDy=0;" edge="1" parent="WIyWlLk6GJQsqaUBKTNV-1" source="BT0k9sbwrZlandMzFCT7-9" target="BT0k9sbwrZlandMzFCT7-16">
          <mxGeometry width="50" height="50" relative="1" as="geometry">
            <mxPoint x="160" y="620" as="sourcePoint" />
            <mxPoint x="415" y="530" as="targetPoint" />
            <Array as="points">
              <mxPoint x="340" y="620" />
              <mxPoint x="340" y="70" />
            </Array>
          </mxGeometry>
        </mxCell>
        <mxCell id="BT0k9sbwrZlandMzFCT7-19" value="" style="endArrow=block;html=1;rounded=0;exitX=1;exitY=0.5;exitDx=0;exitDy=0;endFill=0;endSize=8;entryX=0;entryY=0.5;entryDx=0;entryDy=0;" edge="1" parent="WIyWlLk6GJQsqaUBKTNV-1" source="BT0k9sbwrZlandMzFCT7-17" target="BT0k9sbwrZlandMzFCT7-27">
          <mxGeometry width="50" height="50" relative="1" as="geometry">
            <mxPoint x="95" y="400" as="sourcePoint" />
            <mxPoint x="560" y="60" as="targetPoint" />
            <Array as="points">
              <mxPoint x="540" y="240" />
              <mxPoint x="540" y="70" />
            </Array>
          </mxGeometry>
        </mxCell>
        <mxCell id="BT0k9sbwrZlandMzFCT7-20" value="" style="endArrow=block;html=1;rounded=0;exitX=0.5;exitY=1;exitDx=0;exitDy=0;endFill=0;endSize=8;entryX=0.5;entryY=0;entryDx=0;entryDy=0;" edge="1" parent="WIyWlLk6GJQsqaUBKTNV-1" source="BT0k9sbwrZlandMzFCT7-16" target="BT0k9sbwrZlandMzFCT7-21">
          <mxGeometry width="50" height="50" relative="1" as="geometry">
            <mxPoint x="450" y="270" as="sourcePoint" />
            <mxPoint x="450" y="350" as="targetPoint" />
          </mxGeometry>
        </mxCell>
        <mxCell id="BT0k9sbwrZlandMzFCT7-21" value="Stop movement." style="rounded=1;whiteSpace=wrap;html=1;" vertex="1" parent="WIyWlLk6GJQsqaUBKTNV-1">
          <mxGeometry x="360" y="125" width="120" height="60" as="geometry" />
        </mxCell>
        <mxCell id="BT0k9sbwrZlandMzFCT7-22" value="Draw attack" style="rounded=1;whiteSpace=wrap;html=1;" vertex="1" parent="WIyWlLk6GJQsqaUBKTNV-1">
          <mxGeometry x="360" y="295" width="120" height="60" as="geometry" />
        </mxCell>
        <mxCell id="BT0k9sbwrZlandMzFCT7-24" value="" style="endArrow=block;html=1;rounded=0;exitX=0.5;exitY=1;exitDx=0;exitDy=0;endFill=0;endSize=8;entryX=0.5;entryY=0;entryDx=0;entryDy=0;" edge="1" parent="WIyWlLk6GJQsqaUBKTNV-1" source="BT0k9sbwrZlandMzFCT7-21" target="BT0k9sbwrZlandMzFCT7-17">
          <mxGeometry width="50" height="50" relative="1" as="geometry">
            <mxPoint x="430" y="110" as="sourcePoint" />
            <mxPoint x="430" y="135" as="targetPoint" />
          </mxGeometry>
        </mxCell>
        <mxCell id="BT0k9sbwrZlandMzFCT7-27" value="Set angular velocity of Body." style="rounded=1;whiteSpace=wrap;html=1;" vertex="1" parent="WIyWlLk6GJQsqaUBKTNV-1">
          <mxGeometry x="560" y="40" width="120" height="60" as="geometry" />
        </mxCell>
        <mxCell id="BT0k9sbwrZlandMzFCT7-28" style="edgeStyle=orthogonalEdgeStyle;rounded=0;orthogonalLoop=1;jettySize=auto;html=1;exitX=0.5;exitY=1;exitDx=0;exitDy=0;entryX=0.5;entryY=0;entryDx=0;entryDy=0;endSize=8;endArrow=block;endFill=0;" edge="1" parent="WIyWlLk6GJQsqaUBKTNV-1" target="BT0k9sbwrZlandMzFCT7-29" source="BT0k9sbwrZlandMzFCT7-27">
          <mxGeometry relative="1" as="geometry">
            <mxPoint x="620" y="100" as="sourcePoint" />
          </mxGeometry>
        </mxCell>
        <mxCell id="BT0k9sbwrZlandMzFCT7-29" value="Draw attack" style="rounded=1;whiteSpace=wrap;html=1;" vertex="1" parent="WIyWlLk6GJQsqaUBKTNV-1">
          <mxGeometry x="560" y="125" width="120" height="60" as="geometry" />
        </mxCell>
      </root>
    </mxGraphModel>
  </diagram>
</mxfile>
